<?xml version="1.0" encoding="UTF-8"?>
<svg width="116px" height="30px" viewBox="0 0 116 30" version="1.1" xmlns="http://www.w3.org/2000/svg" xmlns:xlink="http://www.w3.org/1999/xlink">
    <!-- Generator: Sketch 52.5 (67469) - http://www.bohemiancoding.com/sketch -->
    <title>Group</title>
    <desc>Created with Sketch.</desc>
    <g id="Page-1" stroke="none" stroke-width="1" fill="none" fill-rule="evenodd">
        <g id="server-list" transform="translate(-154.000000, -41.000000)">
            <g id="Group" transform="translate(154.000000, 41.000000)">
                <path d="M10.067811,3.962 L10.067811,9.617 L13.850811,9.617 L13.850811,14.804 L10.067811,14.804 L10.067811,22.058 C10.067811,23.4100068 10.7828038,24.086 12.212811,24.086 C12.6808133,24.086 13.2008081,24.0210006 13.772811,23.891 L13.772811,28.805 C13.0448073,29.1690018 12.0178176,29.351 10.691811,29.351 C8.68980095,29.351 7.11031675,28.7920056 5.95331096,27.674 C4.79630518,26.5559944 4.21781096,25.0350096 4.21781096,23.111 L4.21781096,14.804 L0.785810962,14.804 L0.785810962,9.617 L1.76081096,9.617 C2.7488159,9.617 3.49630843,9.32450293 4.00331096,8.7395 C4.5103135,8.15449707 4.76381096,7.39400468 4.76381096,6.458 L4.76381096,3.962 L10.067811,3.962 Z M22.413811,16.988 L30.174811,16.988 C30.1228107,16.1039956 29.7783141,15.3370032 29.141311,14.687 C28.5043078,14.0369968 27.5488173,13.712 26.274811,13.712 C25.1308052,13.712 24.2208143,14.0499966 23.544811,14.726 C22.8688076,15.4020034 22.4918114,16.1559958 22.413811,16.988 Z M30.603811,22.019 L35.556811,23.423 C35.0628085,25.217009 34.0358188,26.6924942 32.475811,27.8495 C30.9158032,29.0065058 28.9658227,29.585 26.625811,29.585 C23.8177969,29.585 21.4323208,28.6490094 19.469311,26.777 C17.5063011,24.9049906 16.524811,22.3960157 16.524811,19.25 C16.524811,16.2339849 17.4803014,13.7770095 19.391311,11.879 C21.3023205,9.98099051 23.5707978,9.032 26.196811,9.032 C29.212826,9.032 31.5853023,9.90949122 33.314311,11.6645 C35.0433196,13.4195088 35.907811,15.8569844 35.907811,18.977 C35.907811,19.9650049 35.8688114,20.5759988 35.790811,20.81 L22.296811,20.81 C22.3488112,21.8760053 22.8038067,22.7664964 23.661811,23.4815 C24.5198153,24.1965036 25.5338051,24.554 26.703811,24.554 C28.705821,24.554 30.005808,23.7090084 30.603811,22.019 Z M38.230811,23.501 L43.261811,22.604 C43.3138112,23.3320036 43.5933084,23.9494975 44.100311,24.4565 C44.6073135,24.9635025 45.3418062,25.217 46.303811,25.217 C47.0318146,25.217 47.590809,25.0545016 47.980811,24.7295 C48.3708129,24.4044984 48.565811,24.0080023 48.565811,23.54 C48.565811,22.7599961 47.9288173,22.2270014 46.654811,21.941 L44.431811,21.434 C42.4558011,21.0179979 40.9998156,20.2835053 40.063811,19.2305 C39.1278063,18.1774947 38.659811,16.9230073 38.659811,15.467 C38.659811,13.672991 39.3683039,12.1520062 40.785311,10.904 C42.2023181,9.65599376 43.9768003,9.032 46.108811,9.032 C48.6308236,9.032 50.5223047,9.63649395 51.783311,10.8455 C53.0443173,12.054506 53.7398103,13.3739929 53.869811,14.804 L48.955811,15.701 C48.8778106,14.9989965 48.6113132,14.4270022 48.156311,13.985 C47.7013087,13.5429978 47.0448153,13.322 46.186811,13.322 C45.6148081,13.322 45.120813,13.4779984 44.704811,13.79 C44.2888089,14.1020016 44.080811,14.5049975 44.080811,14.999 C44.080811,15.7790039 44.5878059,16.2599991 45.601811,16.442 L48.175811,16.949 C50.1258207,17.3390019 51.6078059,18.0799945 52.621811,19.172 C53.635816,20.2640055 54.142811,21.5509926 54.142811,23.033 C54.142811,24.827009 53.4668177,26.3674936 52.114811,27.6545 C50.7628042,28.9415064 48.8648232,29.585 46.420811,29.585 C44.9908038,29.585 43.7233165,29.3770021 42.618311,28.961 C41.5133054,28.5449979 40.6683139,28.0055033 40.083311,27.3425 C39.498308,26.6794967 39.0563125,26.0230033 38.757311,25.373 C38.4583095,24.7229967 38.2828112,24.099003 38.230811,23.501 Z M65.201811,3.962 L65.201811,9.617 L68.984811,9.617 L68.984811,14.804 L65.201811,14.804 L65.201811,22.058 C65.201811,23.4100068 65.9168038,24.086 67.346811,24.086 C67.8148133,24.086 68.3348081,24.0210006 68.906811,23.891 L68.906811,28.805 C68.1788073,29.1690018 67.1518176,29.351 65.825811,29.351 C63.823801,29.351 62.2443168,28.7920056 61.087311,27.674 C59.9303052,26.5559944 59.351811,25.0350096 59.351811,23.111 L59.351811,14.804 L55.919811,14.804 L55.919811,9.617 L56.894811,9.617 C57.8828159,9.617 58.6303084,9.32450293 59.137311,8.7395 C59.6443135,8.15449707 59.897811,7.39400468 59.897811,6.458 L59.897811,3.962 L65.201811,3.962 Z M79.224811,29 L73.296811,29 L73.296811,9.617 L79.224811,9.617 L79.224811,29 Z M73.803811,6.146 C73.1278076,5.46999662 72.789811,4.65100481 72.789811,3.689 C72.789811,2.72699519 73.1278076,1.90800338 73.803811,1.232 C74.4798143,0.55599662 75.2858063,0.218 76.221811,0.218 C77.1838158,0.218 78.0093075,0.55599662 78.698311,1.232 C79.3873144,1.90800338 79.731811,2.72699519 79.731811,3.689 C79.731811,4.65100481 79.3873144,5.46999662 78.698311,6.146 C78.0093075,6.82200338 77.1838158,7.16 76.221811,7.16 C75.2858063,7.16 74.4798143,6.82200338 73.803811,6.146 Z M93.403811,24.125 C94.6258171,24.125 95.6593067,23.7090042 96.504311,22.877 C97.3493152,22.0449958 97.771811,20.8490078 97.771811,19.289 C97.771811,17.7289922 97.3493152,16.5395041 96.504311,15.7205 C95.6593067,14.9014959 94.6258171,14.492 93.403811,14.492 C92.207805,14.492 91.1808153,14.9079958 90.322811,15.74 C89.4648067,16.5720042 89.035811,17.7549923 89.035811,19.289 C89.035811,20.8230077 89.4648067,22.0124958 90.322811,22.8575 C91.1808153,23.7025042 92.207805,24.125 93.403811,24.125 Z M93.403811,9.032 C96.3418257,9.032 98.7923012,9.99399038 100.755311,11.918 C102.718321,13.8420096 103.699811,16.298985 103.699811,19.289 C103.699811,22.279015 102.718321,24.7424903 100.755311,26.6795 C98.7923012,28.6165097 96.3418257,29.585 93.403811,29.585 C90.4917964,29.585 88.0478208,28.6100098 86.071811,26.66 C84.0958011,24.7099903 83.107811,22.2530148 83.107811,19.289 C83.107811,16.3249852 84.0958011,13.8745097 86.071811,11.9375 C88.0478208,10.0004903 90.4917964,9.032 93.403811,9.032 Z" id="testio." fill="#2F3254"></path>
                <path d="M108.557811,28.181 C107.777807,27.374996 107.387811,26.4260055 107.387811,25.334 C107.387811,24.2419945 107.777807,23.3060039 108.557811,22.526 C109.337815,21.7459961 110.273806,21.356 111.365811,21.356 C112.457816,21.356 113.400307,21.7459961 114.193311,22.526 C114.986315,23.3060039 115.382811,24.2419945 115.382811,25.334 C115.382811,26.4000053 114.986315,27.335996 114.193311,28.142 C113.400307,28.948004 112.457816,29.351 111.365811,29.351 C110.273806,29.351 109.337815,28.9610039 108.557811,28.181 Z" id="Path" fill="#9FD533"></path>
            </g>
        </g>
    </g>
</svg>