<?xml version="1.0" encoding="UTF-8"?>
<svg width="246px" height="63px" viewBox="0 0 246 63" version="1.1" xmlns="http://www.w3.org/2000/svg" xmlns:xlink="http://www.w3.org/1999/xlink">
    <!-- Generator: Sketch 52.5 (67469) - http://www.bohemiancoding.com/sketch -->
    <title>Group</title>
    <desc>Created with Sketch.</desc>
    <g id="Page-1" stroke="none" stroke-width="1" fill="none" fill-rule="evenodd">
        <g id="log-in" transform="translate(-605.000000, -244.000000)">
            <g id="Group" transform="translate(605.000000, 244.000000)">
                <path d="M19.623,8.23530881 L19.623,20.1253088 L27.577,20.1253088 L27.577,31.0313088 L19.623,31.0313088 L19.623,46.2833088 C19.623,49.1259897 21.1263183,50.5473088 24.133,50.5473088 C25.1170049,50.5473088 26.2103273,50.4106435 27.413,50.1373088 L27.413,60.4693088 C25.8823257,61.234646 23.7230139,61.6173088 20.935,61.6173088 C16.7256456,61.6173088 13.4046788,60.4419872 10.972,58.0913088 C8.53932117,55.7406304 7.323,52.5426624 7.323,48.4973088 L7.323,31.0313088 L0.107,31.0313088 L0.107,20.1253088 L2.157,20.1253088 C4.23434372,20.1253088 5.80599467,19.510315 6.872,18.2803088 C7.93800533,17.0503027 8.471,15.4513187 8.471,13.4833088 L8.471,8.23530881 L19.623,8.23530881 Z M47.371,35.6233088 L63.689,35.6233088 C63.5796661,33.7646329 62.85534,32.1519823 61.516,30.7853088 C60.17666,29.4186353 58.1676801,28.7353088 55.489,28.7353088 C53.0836546,28.7353088 51.1703404,29.4459684 49.749,30.8673088 C48.3276596,32.2886493 47.5350008,33.8739667 47.371,35.6233088 Z M64.591,46.2013088 L75.005,49.1533088 C73.9663281,52.9253277 71.8070164,56.02763 68.527,58.4603088 C65.2469836,60.8929876 61.1470246,62.1093088 56.227,62.1093088 C50.3229705,62.1093088 45.307354,60.1413285 41.18,56.2053088 C37.052646,52.2692891 34.989,46.9940086 34.989,40.3793088 C34.989,34.0379438 36.9979799,28.8719954 41.016,24.8813088 C45.0340201,20.8906222 49.8036391,18.8953088 55.325,18.8953088 C61.666365,18.8953088 66.6546485,20.7402904 70.29,24.4303088 C73.9253515,28.1203273 75.743,33.245276 75.743,39.8053088 C75.743,41.8826525 75.6610008,43.1673064 75.497,43.6593088 L47.125,43.6593088 C47.2343339,45.9006534 48.190991,47.772968 49.995,49.2763088 C51.799009,50.7796497 53.9309877,51.5313088 56.391,51.5313088 C60.6003544,51.5313088 63.3336604,49.7546599 64.591,46.2013088 Z M82.417,49.3173088 L92.995,47.4313088 C93.1043339,48.9619831 93.6919947,50.2603035 94.758,51.3263088 C95.8240053,52.3923141 97.3683232,52.9253088 99.391,52.9253088 C100.921674,52.9253088 102.096996,52.5836456 102.917,51.9003088 C103.737004,51.2169721 104.147,50.3833137 104.147,49.3993088 C104.147,47.7593006 102.80768,46.6386452 100.129,46.0373088 L95.455,44.9713088 C91.3003126,44.0966378 88.2390098,42.5523199 86.271,40.3383088 C84.3029902,38.1242977 83.319,35.4866575 83.319,32.4253088 C83.319,28.65329 84.8086518,25.4553219 87.788,22.8313088 C90.7673482,20.2072957 94.4983109,18.8953088 98.981,18.8953088 C104.283693,18.8953088 108.260653,20.1662961 110.912,22.7083088 C113.563347,25.2503215 115.025665,28.0246271 115.299,31.0313088 L104.967,32.9173088 C104.802999,31.4413014 104.242671,30.2386468 103.286,29.3093088 C102.329329,28.3799708 100.949009,27.9153088 99.145,27.9153088 C97.9423273,27.9153088 96.903671,28.2433055 96.029,28.8993088 C95.154329,29.5553121 94.717,30.402637 94.717,31.4413088 C94.717,33.081317 95.7829893,34.0926402 97.915,34.4753088 L103.327,35.5413088 C107.42702,36.3613129 110.542989,37.9192973 112.675,40.2153088 C114.807011,42.5113203 115.873,45.2172932 115.873,48.3333088 C115.873,52.1053277 114.451681,55.3442953 111.609,58.0503088 C108.766319,60.7563223 104.775692,62.1093088 99.637,62.1093088 C96.6303183,62.1093088 93.9653449,61.6719799 91.642,60.7973088 C89.318655,59.9226378 87.5420061,58.7883158 86.312,57.3943088 C85.0819938,56.0003018 84.1526698,54.6199823 83.524,53.2533088 C82.8953302,51.8866353 82.5263339,50.5746484 82.417,49.3173088 Z M140.915,8.23530881 L140.915,20.1253088 L148.869,20.1253088 L148.869,31.0313088 L140.915,31.0313088 L140.915,46.2833088 C140.915,49.1259897 142.418318,50.5473088 145.425,50.5473088 C146.409005,50.5473088 147.502327,50.4106435 148.705,50.1373088 L148.705,60.4693088 C147.174326,61.234646 145.015014,61.6173088 142.227,61.6173088 C138.017646,61.6173088 134.696679,60.4419872 132.264,58.0913088 C129.831321,55.7406304 128.615,52.5426624 128.615,48.4973088 L128.615,31.0313088 L121.399,31.0313088 L121.399,20.1253088 L123.449,20.1253088 C125.526344,20.1253088 127.097995,19.510315 128.164,18.2803088 C129.230005,17.0503027 129.763,15.4513187 129.763,13.4833088 L129.763,8.23530881 L140.915,8.23530881 Z M172.189,60.8793088 L159.725,60.8793088 L159.725,20.1253088 L172.189,20.1253088 L172.189,60.8793088 Z M160.791,12.8273088 C159.36966,11.4059684 158.659,9.68398559 158.659,7.66130881 C158.659,5.63863203 159.36966,3.91664925 160.791,2.49530881 C162.21234,1.07396837 163.90699,0.363308814 165.875,0.363308814 C167.897677,0.363308814 169.633326,1.07396837 171.082,2.49530881 C172.530674,3.91664925 173.255,5.63863203 173.255,7.66130881 C173.255,9.68398559 172.530674,11.4059684 171.082,12.8273088 C169.633326,14.2486493 167.897677,14.9593088 165.875,14.9593088 C163.90699,14.9593088 162.21234,14.2486493 160.791,12.8273088 Z M203.791,50.6293088 C206.360346,50.6293088 208.533324,49.7546509 210.31,48.0053088 C212.086676,46.2559667 212.975,43.7413252 212.975,40.4613088 C212.975,37.1812924 212.086676,34.6803174 210.31,32.9583088 C208.533324,31.2363002 206.360346,30.3753088 203.791,30.3753088 C201.276321,30.3753088 199.117009,31.2499667 197.313,32.9993088 C195.508991,34.7486509 194.607,37.2359594 194.607,40.4613088 C194.607,43.6866583 195.508991,46.1876333 197.313,47.9643088 C199.117009,49.7409844 201.276321,50.6293088 203.791,50.6293088 Z M203.791,18.8953088 C209.968364,18.8953088 215.120646,20.9179553 219.248,24.9633088 C223.375354,29.0086624 225.439,34.1746107 225.439,40.4613088 C225.439,46.7480069 223.375354,51.9276218 219.248,56.0003088 C215.120646,60.0729958 209.968364,62.1093088 203.791,62.1093088 C197.668303,62.1093088 192.529687,60.0593293 188.375,55.9593088 C184.220313,51.8592883 182.143,46.69334 182.143,40.4613088 C182.143,34.2292777 184.220313,29.0769958 188.375,25.0043088 C192.529687,20.9316218 197.668303,18.8953088 203.791,18.8953088 Z" id="testio." fill="#FFFFFF"></path>
                <path d="M231.443,59.1573088 C229.802992,57.4626337 228.983,55.4673203 228.983,53.1713088 C228.983,50.8752973 229.802992,48.907317 231.443,47.2673088 C233.083008,45.6273006 235.050989,44.8073088 237.347,44.8073088 C239.643011,44.8073088 241.624658,45.6273006 243.292,47.2673088 C244.959342,48.907317 245.793,50.8752973 245.793,53.1713088 C245.793,55.4126534 244.959342,57.3806337 243.292,59.0753088 C241.624658,60.769984 239.643011,61.6173088 237.347,61.6173088 C235.050989,61.6173088 233.083008,60.797317 231.443,59.1573088 Z" id="Path" fill="#9FD534"></path>
            </g>
        </g>
    </g>
</svg>