<?xml version="1.0" encoding="UTF-8"?>
<svg width="14px" height="16px" viewBox="0 0 14 16" version="1.1" xmlns="http://www.w3.org/2000/svg" xmlns:xlink="http://www.w3.org/1999/xlink">
    <!-- Generator: Sketch 64 (93537) - https://sketch.com -->
    <title>Combined shape 7641</title>
    <desc>Created with Sketch.</desc>
    <g id="Page-1" stroke="none" stroke-width="1" fill="none" fill-rule="evenodd">
        <g id="log-in" transform="translate(-575.000000, -383.000000)" fill="#CCCCCC">
            <g id="Form" transform="translate(548.000000, 362.000000)">
                <g id="Username_field" transform="translate(1.000000, 0.000000)">
                    <path d="M37.036017,30.426022 C38.796996,30.999993 40.000052,32.310974 40.000052,34.000036 L40.000052,34.000036 L40.000052,37.000022 L26.000025,37.000022 L26.000025,34.000036 C26.000025,32.310974 27.202894,30.999993 28.964043,30.426022 C30.031048,31.400019 31.445023,32.000039 33.000132,32.000039 C34.55485,32.000039 35.969029,31.400019 37.036017,30.426022 Z M33.000132,21.000027 C35.205984,21.000027 37.000079,22.793969 37.000079,24.999983 L37.000079,24.999983 L37.000079,26.00001 C37.000079,28.205948 35.205984,29.999966 33.000132,29.999966 C30.793906,29.999966 28.999981,28.205948 28.999981,26.00001 L28.999981,26.00001 L28.999981,24.999983 C28.999981,22.793969 30.793906,21.000027 33.000132,21.000027 Z" id="Combined-shape-7641"></path>
                </g>
            </g>
        </g>
    </g>
</svg>