<?xml version="1.0" encoding="UTF-8" standalone="no"?>
<!DOCTYPE svg PUBLIC "-//W3C//DTD SVG 1.1//EN" "http://www.w3.org/Graphics/SVG/1.1/DTD/svg11.dtd">
<svg width="100%" height="100%" viewBox="0 0 15 16" version="1.1" xmlns="http://www.w3.org/2000/svg" xmlns:xlink="http://www.w3.org/1999/xlink" xml:space="preserve" xmlns:serif="http://www.serif.com/" style="fill-rule:evenodd;clip-rule:evenodd;stroke-linejoin:round;stroke-miterlimit:2;">
    <g transform="matrix(1,0,0,1,-575,-383)">
        <path id="ico-username" d="M586.036,392.426C584.969,393.4 583.555,394 582,394C580.445,394 579.031,393.4 577.964,392.426C576.203,393 575,394.311 575,396L575,399L589,399L589,396C589,394.311 587.797,393 586.036,392.426ZM582,383C579.794,383 578,384.794 578,387L578,388C578,390.206 579.794,392 582,392C584.206,392 586,390.206 586,388L586,387C586,384.794 584.206,383 582,383Z" style="fill:rgb(203,203,203);"/>
    </g>
</svg>
