<svg width="14" height="18" viewBox="0 0 14 18" fill="none" xmlns="http://www.w3.org/2000/svg">
<path fill-rule="evenodd" clip-rule="evenodd" d="M2.99998 4C2.99998 1.80004 4.80008 4.1008e-05 7.00013 4.1008e-05C9.19998 4.1008e-05 11.0001 1.80004 11.0001 4V7.00001H13.0001C13.5999 7.00001 14.0001 7.40004 14.0001 8.00005V17C14.0001 17.6 13.5999 18 13.0001 18H1.00002C0.399984 18 2.5034e-05 17.6 2.5034e-05 17V8.00005C2.5034e-05 7.40004 0.399984 7.00001 1.00002 7.00001H2.99998V4ZM4.99996 7.00001H9.0001V4C9.0001 2.89999 8.09986 2.00004 7.00013 2.00004C5.90001 2.00004 4.99996 2.89999 4.99996 4V7.00001ZM7.99992 11C7.99992 10.4477 7.55224 10 7.00013 10C6.44763 10 5.99995 10.4477 5.99995 11V14C5.99995 14.5523 6.44763 15 7.00013 15C7.55224 15 7.99992 14.5523 7.99992 14V11Z" fill="#CCCCCC"/>
</svg>
