<svg xmlns="http://www.w3.org/2000/svg" viewBox="0 0 512 512"><path d="M380.688 256.001l116.299-116.299c8.72-8.72 8.72-22.859 0-31.579L403.88 15.015c-8.72-8.72-22.859-8.72-31.579 0l-116.3 116.299-116.3-116.299c-8.72-8.72-22.859-8.72-31.579 0l-93.107 93.107c-8.72 8.72-8.72 22.859 0 31.579L131.314 256 15.015 372.3c-8.72 8.72-8.72 22.859 0 31.579l93.108 93.107c8.72 8.72 22.859 8.72 31.579 0l116.299-116.299L372.3 496.985c8.72 8.72 22.859 8.72 31.579 0l93.108-93.107c8.72-8.72 8.72-22.859 0-31.579L380.688 256.001z" fill="#ff6465"/><path d="M388.082 511.986c-7.887 0-15.777-3.003-21.781-9.008l-43.847-43.846a8.474 8.474 0 0 1 11.984-11.983l43.846 43.846c5.402 5.402 14.193 5.404 19.597 0l93.105-93.107a13.764 13.764 0 0 0 4.06-9.798c0-3.701-1.441-7.18-4.058-9.798l-116.299-116.3a8.473 8.473 0 0 1 0-11.983L490.988 133.71c2.618-2.617 4.06-6.097 4.06-9.798s-1.441-7.18-4.058-9.798l-93.108-93.108a13.764 13.764 0 0 0-9.799-4.058c-3.7 0-7.18 1.441-9.797 4.058l-116.3 116.299a8.478 8.478 0 0 1-11.986 0l-65.536-65.537a8.474 8.474 0 1 1 11.984-11.983l59.544 59.545L366.301 9.023C372.119 3.204 379.855 0 388.082 0s15.964 3.204 21.781 9.022l93.108 93.108c5.818 5.818 9.022 13.554 9.022 21.781s-3.204 15.964-9.023 21.781L392.664 255.999l110.307 110.307c5.818 5.818 9.022 13.554 9.022 21.781s-3.204 15.964-9.023 21.782l-93.105 93.107c-6.006 6.007-13.894 9.01-21.783 9.01z"/><path d="M123.905 512c-8.228 0-15.964-3.204-21.781-9.022L9.015 409.87c-12.01-12.01-12.01-31.552 0-43.564l110.308-110.307L9.015 145.692c-12.009-12.01-12.009-31.552 0-43.564l93.108-93.107C107.941 3.204 115.677 0 123.905 0s15.964 3.204 21.781 9.022l26.794 26.794a8.474 8.474 0 0 1-11.984 11.983l-26.794-26.794a13.764 13.764 0 0 0-9.797-4.058c-3.701 0-7.18 1.441-9.799 4.058L21 114.112c-5.402 5.403-5.402 14.193 0 19.596l116.3 116.299a8.472 8.472 0 0 1 0 11.984L21 378.291c-5.403 5.403-5.403 14.193 0 19.596l93.108 93.108a13.764 13.764 0 0 0 9.797 4.058c3.701 0 7.18-1.441 9.799-4.058l116.298-116.299a8.48 8.48 0 0 1 11.986 0l48.485 48.485a8.474 8.474 0 0 1-11.984 11.983l-42.493-42.494L145.69 502.978c-5.821 5.818-13.558 9.022-21.785 9.022z"/></svg>