<svg xmlns="http://www.w3.org/2000/svg" xmlns:xlink="http://www.w3.org/1999/xlink" preserveAspectRatio="xMidYMid" width="16" height="16" viewBox="0 0 16 16">
  <defs>
    <style>
      .cls-1 {
        fill: #2f3254;
        fill-rule: evenodd;
      }
    </style>
  </defs>
  <path d="M15.000,16.000 L6.000,16.000 C5.400,16.000 5.000,15.600 5.000,15.000 L5.000,12.000 L7.000,12.000 L7.000,14.000 L14.000,14.000 L14.000,2.000 L7.000,2.000 L7.000,4.000 L5.000,4.000 L5.000,1.000 C5.000,0.400 5.400,-0.000 6.000,-0.000 L15.000,-0.000 C15.600,-0.000 16.000,0.400 16.000,1.000 L16.000,15.000 C16.000,15.600 15.600,16.000 15.000,16.000 ZM10.000,9.000 L4.000,9.000 L4.000,12.000 L0.000,8.000 L4.000,4.000 L4.000,7.000 L10.000,7.000 L10.000,9.000 Z" class="cls-1"/>
</svg>
