<?xml version="1.0" standalone="no"?>
<!DOCTYPE svg PUBLIC "-//W3C//DTD SVG 20010904//EN"
 "http://www.w3.org/TR/2001/REC-SVG-20010904/DTD/svg10.dtd">
<svg version="1.0" xmlns="http://www.w3.org/2000/svg"
 width="900.000000pt" height="900.000000pt" viewBox="0 0 900.000000 900.000000"
 preserveAspectRatio="xMidYMid meet">
<metadata>
Created by potrace 1.11, written by Peter Selinger 2001-2013
</metadata>
<g transform="translate(0.000000,900.000000) scale(0.100000,-0.100000)"
fill="#000000" stroke="none">
<path d="M0 4500 l0 -4500 4500 0 4500 0 0 4500 0 4500 -4500 0 -4500 0 0
-4500z m5990 1050 c46 -23 95 -71 117 -113 25 -49 29 -148 8 -204 -41 -107
-139 -169 -255 -161 -74 6 -110 21 -159 70 -103 100 -103 257 -2 358 80 79
195 99 291 50z m-4980 -450 l0 -210 140 0 140 0 0 -190 0 -190 -141 0 -141 0
4 -293 c3 -263 5 -296 21 -321 29 -44 79 -59 170 -53 l77 5 0 -178 0 -178 -47
-16 c-77 -26 -197 -31 -293 -12 -174 36 -276 121 -331 277 -22 61 -23 81 -27
416 l-4 352 -121 3 -122 3 -3 186 -2 186 75 6 c93 7 140 29 180 86 29 41 30
46 33 174 1 73 5 138 7 145 3 9 51 12 195 12 l190 0 0 -210z m4100 0 l0 -210
140 0 140 0 0 -190 0 -190 -141 0 -141 0 4 -293 c3 -263 5 -296 21 -321 29
-44 79 -59 170 -53 l77 5 0 -178 0 -178 -47 -16 c-77 -26 -197 -31 -293 -12
-174 36 -276 121 -331 277 -22 61 -23 81 -27 416 l-4 352 -121 3 -122 3 -3
186 -2 186 75 6 c93 7 140 29 180 86 29 41 30 46 33 174 1 73 5 138 7 145 3 9
51 12 195 12 l190 0 0 -210z m-2822 -171 c293 -32 490 -188 571 -452 25 -84
43 -262 33 -342 l-7 -60 -487 -3 -488 -2 0 -25 c0 -66 75 -161 163 -207 59
-31 208 -38 274 -13 59 23 115 73 138 125 12 28 23 39 34 36 346 -96 352 -98
345 -120 -22 -77 -84 -176 -149 -241 -124 -125 -287 -186 -495 -186 -415 0
-712 282 -737 698 -24 404 232 738 608 791 90 13 89 13 197 1z m1581 -15 c144
-37 277 -136 331 -247 33 -70 53 -144 39 -153 -11 -6 -316 -64 -340 -64 -11 0
-19 12 -23 36 -9 47 -68 111 -114 124 -57 15 -112 12 -157 -10 -48 -23 -69
-56 -68 -106 2 -66 31 -82 211 -119 218 -44 314 -85 398 -171 205 -210 140
-553 -132 -696 -39 -21 -102 -45 -139 -53 -88 -21 -271 -21 -357 -1 -212 49
-366 193 -406 379 -11 55 -32 45 173 81 205 36 188 36 196 -2 11 -53 56 -112
102 -133 55 -25 159 -25 207 -1 42 20 75 80 66 118 -16 61 -46 75 -276 129
-212 49 -345 135 -406 262 -23 48 -29 75 -32 155 -5 104 9 165 54 244 52 90
179 186 294 223 101 32 265 34 379 5z m3441 -1 c204 -47 390 -193 481 -378 63
-129 82 -224 77 -380 -9 -219 -68 -357 -217 -506 -146 -145 -311 -210 -531
-210 -298 0 -543 145 -666 396 -66 135 -79 195 -78 360 0 130 2 147 31 230 17
50 48 120 69 155 47 82 170 204 254 253 164 95 384 126 580 80z m-1210 -728
l0 -705 -220 0 -220 0 0 705 0 705 220 0 220 0 0 -705z m2387 -181 c147 -71
205 -250 127 -394 -34 -62 -70 -95 -144 -128 -273 -126 -528 226 -328 453 90
102 222 129 345 69z"/>
<path d="M2099 4576 c-91 -32 -150 -90 -174 -171 l-14 -45 279 0 280 0 0 23
c-1 71 -87 166 -174 192 -60 18 -148 19 -197 1z"/>
<path d="M6985 4502 c-67 -32 -117 -83 -149 -151 -18 -39 -21 -65 -21 -166 0
-111 2 -124 27 -171 61 -116 135 -165 259 -172 142 -8 247 54 305 180 25 56
28 74 28 163 1 91 -2 106 -30 165 -59 124 -131 172 -269 177 -83 4 -95 2 -150
-25z"/>
</g>
</svg>
