<svg 
 xmlns="http://www.w3.org/2000/svg"
 xmlns:xlink="http://www.w3.org/1999/xlink"
 width="14px" height="16px">
<path fill-rule="evenodd"  fill="#ccc"
 d="M0.000,16.000 L0.000,13.000 C0.000,11.311 1.203,10.000 2.964,9.426 C4.031,10.400 5.445,11.000 7.000,11.000 C8.555,11.000 9.969,10.400 11.036,9.426 C12.797,10.000 14.000,11.311 14.000,13.000 L14.000,16.000 L0.000,16.000 ZM7.000,9.000 C4.794,9.000 3.000,7.206 3.000,5.000 L3.000,4.000 C3.000,1.794 4.794,0.000 7.000,0.000 C9.206,0.000 11.000,1.794 11.000,4.000 L11.000,5.000 C11.000,7.206 9.206,9.000 7.000,9.000 Z"/>
</svg>