<?xml version="1.0" encoding="UTF-8"?>
<svg width="28px" height="25px" viewBox="0 0 28 25" version="1.1" xmlns="http://www.w3.org/2000/svg" xmlns:xlink="http://www.w3.org/1999/xlink">
    <!-- Generator: Sketch 59.1 (86144) - https://sketch.com -->
    <title>Group</title>
    <desc>Created with Sketch.</desc>
    <g id="Page-1" stroke="none" stroke-width="1" fill="none" fill-rule="evenodd">
        <g id="Group" fill="#F64F64" fill-rule="nonzero">
            <path d="M27.7731253,22.35 L15.6839283,0.953571429 C14.9652222,-0.317857143 13.0331161,-0.317857143 12.31441,0.953571429 L0.227079804,22.35 C-0.450557394,23.55 0.469759792,25 1.91090557,25 L26.0911663,25 C27.5285785,25 28.4507625,23.55 27.7731253,22.35 Z M14.0001025,21.3964286 C13.4970794,21.3997552 13.0132786,21.2117909 12.6551369,20.8738881 C12.2969952,20.5359853 12.0938515,20.0758249 12.0903977,19.5946429 C12.0903977,18.6 12.9472447,17.7928571 14.0001025,17.7928571 C15.0529603,17.7928571 15.9098074,18.6 15.9098074,19.5964286 C15.9098074,20.5892857 15.0529603,21.3964286 14.0001025,21.3964286 L14.0001025,21.3964286 Z M15.9098074,15.9910714 L12.0903977,15.9910714 L12.0903977,8.78571429 L15.9098074,8.78571429 L15.9098074,15.9928571 L15.9098074,15.9910714 Z" id="Shape"></path>
        </g>
    </g>
</svg>