<?xml version="1.0" encoding="UTF-8"?>
<svg width="100px" height="100px" viewBox="0 0 100 100" version="1.1" xmlns="http://www.w3.org/2000/svg" xmlns:xlink="http://www.w3.org/1999/xlink">
    <!-- Generator: Sketch 43.1 (39012) - http://www.bohemiancoding.com/sketch -->
    <title>Shape</title>
    <desc>Created with Sketch.</desc>
    <defs></defs>
    <g id="Page-1" stroke="none" stroke-width="1" fill="none" fill-rule="evenodd">
        <path d="M99.088152,80.3379733 C99.0877614,80.3375826 99.0873708,80.337192 99.0869802,80.3369967 L68.7506294,50.0000497 L99.0869802,19.6631028 C99.0873708,19.6627121 99.0877614,19.6625168 99.088152,19.6621262 C99.4147148,19.335368 99.6508478,18.953727 99.8022151,18.5472812 C100.216864,17.4363425 99.9803402,16.1369271 99.0869802,15.2435667 L84.7563054,0.912887107 C83.8629453,0.0197220762 82.5639209,-0.216606305 81.4527873,0.198042582 C81.046537,0.349409934 80.6647008,0.585543002 80.3377474,0.911910544 C80.3377474,0.912301169 80.3373568,0.912496482 80.3369661,0.912887107 L50.0002247,31.2500294 L19.6634833,0.91308242 C19.6630926,0.912691795 19.6628973,0.912496482 19.6625067,0.912105857 C19.3357487,0.585738315 18.9541077,0.349605247 18.5478574,0.198237895 C17.4365285,-0.216606305 16.1375041,0.0199173889 15.244144,0.91308242 L0.913273942,15.2439573 C0.0199138995,16.1373177 -0.216414402,17.4365378 0.198234345,18.5474765 C0.349796959,18.953727 0.585929948,19.3357587 0.912297379,19.6623215 C0.912688004,19.6625168 0.912883317,19.6629074 0.913273942,19.6632981 L31.2502107,50.0000497 L0.913273942,80.337192 C0.91307863,80.3375826 0.912688004,80.3377779 0.912492692,80.3381686 C0.58612526,80.6649267 0.349992271,81.0465678 0.198234345,81.4528182 C-0.216609715,82.5637569 0.0199138995,83.8631724 0.913273942,84.7565327 L15.244144,99.0872123 C16.1376994,99.9805727 17.4367238,100.216901 18.5478574,99.8022522 C18.9541077,99.6506895 19.335944,99.4145564 19.662702,99.0881889 C19.6628973,99.0877983 19.663288,99.087603 19.6636786,99.0872123 L50.00042,68.7502654 L80.3371615,99.0872123 C80.3375521,99.0874077 80.3379427,99.0877983 80.3383333,99.0879936 C80.6652867,99.4145564 81.0467323,99.6506895 81.4529826,99.8022522 C82.5641162,100.216901 83.8635313,99.9805727 84.7565007,99.0872123 L99.0871755,84.7563374 C99.9805355,83.8629771 100.217059,82.5635616 99.8024104,81.4526229 C99.6508478,81.0463725 99.4147148,80.6647314 99.088152,80.3379733 Z" id="Shape" fill="#D0011B" fill-rule="nonzero"></path>
    </g>
</svg>