<?xml version="1.0" encoding="UTF-8"?>
<svg width="16px" height="16px" viewBox="0 0 16 16" version="1.1" xmlns="http://www.w3.org/2000/svg" xmlns:xlink="http://www.w3.org/1999/xlink">
    <!-- Generator: Sketch 59.1 (86144) - https://sketch.com -->
    <title>Combined shape 7742</title>
    <desc>Created with Sketch.</desc>
    <g id="Page-1" stroke="none" stroke-width="1" fill="none" fill-rule="evenodd">
        <g id="server-list" transform="translate(-1463.000000, -50.000000)" fill="#2F3254">
            <g id="Logout_CTA" transform="translate(1462.000000, 45.000000)">
                <path d="M15.157962,4.999959 C15.726402,4.999959 16.10532,5.399985 16.10532,5.999986 L16.10532,20.000022 C16.10532,20.599947 15.726402,20.999954 15.157962,20.999954 L6.63156,20.999954 C6.0633,20.999954 5.684382,20.599947 5.684382,20.000022 L5.684382,16.999998 L7.579098,16.999998 L7.579098,18.999995 L14.210604,18.999995 L14.210604,7.000032 L7.579098,7.000032 L7.579098,9.000029 L5.684382,9.000029 L5.684382,5.999986 C5.684382,5.399985 6.0633,4.999959 6.63156,4.999959 L15.157962,4.999959 Z M4.736844,9.000029 L4.736844,12.000015 L10.420992,12.000015 L10.420992,14.000012 L4.736844,14.000012 L4.736844,16.999998 L0.94743,12.999985 L4.736844,9.000029 Z" id="Combined-shape-7742"></path>
            </g>
        </g>
    </g>
</svg>