<?xml version="1.0" encoding="UTF-8" standalone="no"?><!DOCTYPE svg PUBLIC "-//W3C//DTD SVG 1.1//EN" "http://www.w3.org/Graphics/SVG/1.1/DTD/svg11.dtd"><svg width="100%" height="100%" viewBox="0 0 16 16" version="1.1" xmlns="http://www.w3.org/2000/svg" xmlns:xlink="http://www.w3.org/1999/xlink" xml:space="preserve" style="fill-rule:evenodd;clip-rule:evenodd;stroke-linejoin:round;stroke-miterlimit:1.41421;"><path id="ico.-logout" d="M7,4l-2,0l0,-3c0,-0.6 0.4,-1 1,-1l9,0c0.6,0 1,0.4 1,1l0,14c0,0.596 -0.395,0.995 -1,1l-9,0c-0.6,0 -1,-0.4 -1,-1l0,-3l2,0l0,2l7,0l0,-12l-7,0l0,2Zm-3,0l-4,4l4,4l0,-3l6,0l0,-2l-6,0l0,-3Z" style="fill:#2f3153;"/></svg>