<svg width="14" height="18" viewBox="0 0 14 18" fill="none" xmlns="http://www.w3.org/2000/svg">
<path fill-rule="evenodd" clip-rule="evenodd" d="M2.99996 3.99998C2.99996 1.80002 4.80005 3.05176e-05 7.00011 3.05176e-05C9.19996 3.05176e-05 11.0001 1.80002 11.0001 3.99998V7H13C13.5999 7 14 7.40003 14 8.00004V17C14 17.6 13.5999 18 13 18H0.999991C0.399959 18 0 17.6 0 17V8.00004C0 7.40003 0.399959 7 0.999991 7H2.99996V3.99998ZM4.99994 7H9.00007V3.99998C9.00007 2.89998 8.09984 2.00003 7.00011 2.00003C5.89999 2.00003 4.99994 2.89998 4.99994 3.99998V7ZM7.99989 11C7.99989 10.4477 7.55222 10 7.00011 10C6.44761 10 5.99993 10.4477 5.99993 11V14C5.99993 14.5523 6.44761 15 7.00011 15C7.55222 15 7.99989 14.5523 7.99989 14V11Z" fill="#CCCCCC"/>
</svg>
