<svg xmlns="http://www.w3.org/2000/svg" width="14" height="18" viewBox="0 0 14 18">
  <defs>
    <style>
      .cls-1 {
        fill: #ccc;
        fill-rule: evenodd;
      }
    </style>
  </defs>
  <path id="ico-lock" class="cls-1" d="M582,458a4.012,4.012,0,0,0-4,4v3h-2a0.945,0.945,0,0,0-1,1v9a0.945,0.945,0,0,0,1,1h12a0.945,0.945,0,0,0,1-1v-9a0.945,0.945,0,0,0-1-1h-2v-3A4.012,4.012,0,0,0,582,458Zm2,7h-4v-3a2,2,0,0,1,4,0v3Zm-2,3a1,1,0,0,1,1,1v3a1,1,0,0,1-2,0v-3A1,1,0,0,1,582,468Z" transform="translate(-575 -458)"/>
</svg>
