
<svg width="16px" height="16px" viewBox="0 0 16 16" version="1.1" xmlns="http://www.w3.org/2000/svg" xmlns:xlink="http://www.w3.org/1999/xlink">
    <g id="Page-1" stroke="none" stroke-width="1" fill="none" fill-rule="evenodd">
        <g id="server-list" transform="translate(-1463.000000, -50.000000)" fill="#2F3254">
            <g id="Logout_CTA" transform="translate(1462.000000, 45.000000)">
                <path d="M5.000002,9.000029 L5.000002,12.000015 L10.999936,12.000015 L10.999936,14.000012 L5.000002,14.000012 L5.000002,16.999998 L1.000065,12.999985 L5.000002,9.000029 Z M16.000071,20.999954 L6.99998,20.999954 C6.40015,20.999954 6.000181,20.599947 6.000181,20.000022 L6.000181,16.999998 L8.000159,16.999998 L8.000159,18.999995 L15.000082,18.999995 L15.000082,7.000032 L8.000159,7.000032 L8.000159,9.000029 L6.000181,9.000029 L6.000181,5.999986 C6.000181,5.399985 6.40015,4.999959 6.99998,4.999959 L16.000071,4.999959 C16.600091,4.999959 17.00006,5.399985 17.00006,5.999986 L17.00006,20.000022 C17.00006,20.599947 16.600091,20.999954 16.000071,20.999954 Z" id="Combined-shape-7742"></path>
            </g>
        </g>
    </g>
</svg>