<?xml version="1.0" encoding="UTF-8"?>
<svg width="14px" height="18px" viewBox="0 0 14 18" version="1.1" xmlns="http://www.w3.org/2000/svg" xmlns:xlink="http://www.w3.org/1999/xlink">
    <!-- Generator: Sketch 60 (88103) - https://sketch.com -->
    <title>Combined shape 7642</title>
    <desc>Created with Sketch.</desc>
    <g id="Page-1" stroke="none" stroke-width="1" fill="none" fill-rule="evenodd">
        <g id="log-in" transform="translate(-575.000000, -458.000000)" fill="#CCCCCC">
            <g id="Form" transform="translate(548.000000, 362.000000)">
                <g id="Password_field" transform="translate(0.000000, 76.000000)">
                    <path d="M34.000132,20.000041 C36.199983,20.000041 38.000079,21.800035 38.000079,23.999995 L38.000079,23.999995 L38.000079,27.000013 L40.000061,27.000013 C40.599906,27.000013 41.000052,27.400042 41.000052,28.000054 L41.000052,28.000054 L41.000052,37.000003 C41.000052,37.600015 40.599906,38.000023 40.000061,38.000023 L40.000061,38.000023 L28.000016,38.000023 C27.399984,38.000023 27.000025,37.600015 27.000025,37.000003 L27.000025,37.000003 L27.000025,28.000054 C27.000025,27.400042 27.399984,27.000013 28.000016,27.000013 L28.000016,27.000013 L29.999981,27.000013 L29.999981,23.999995 C29.999981,21.800035 31.800077,20.000041 34.000132,20.000041 Z M34.000132,30.00001 C33.447632,30.00001 32.999954,30.44773 32.999954,30.999988 L32.999954,30.999988 L32.999954,33.999964 C32.999954,34.552306 33.447632,34.999984 34.000132,34.999984 C34.552241,34.999984 34.999919,34.552306 34.999919,33.999964 L34.999919,33.999964 L34.999919,30.999988 C34.999919,30.44773 34.552241,30.00001 34.000132,30.00001 Z M34.000132,22.000039 C32.900011,22.000039 31.999963,22.899994 31.999963,23.999995 L31.999963,23.999995 L31.999963,27.000013 L36.000097,27.000013 L36.000097,23.999995 C36.000097,22.899994 35.099862,22.000039 34.000132,22.000039 Z" id="Combined-shape-7642"></path>
                </g>
            </g>
        </g>
    </g>
</svg>