<svg xmlns="http://www.w3.org/2000/svg" preserveAspectRatio="none" viewBox="0 0 833 215"><path fill="#FFF" fill-rule="evenodd" d="M29 27h39v42h28v38H68v56s1.4 11.5 11 11c13 0 13-1 13-1h3v36s-14.8 4-19 4h-6s-17-.7-29-10-15-22.8-15-31v-65H0V69h11s18-2.4 18-20V27zm129 96h57s-1.8-23.6-28-24c-26.2-.4-29 24-29 24zm98 28h-98v4s5.9 23 31 23 28-19 28-19l37 10s-12.3 46.9-65 45c-52.7-1.9-74-38.3-74-75s25.7-75 72-75 72.2 31 69 87zm100-38l36-6s-1.4-41.6-56-42c-54.6-.4-55.3 44.6-55 46 .3 1.4-1.4 22.6 17 34 18.4 11.4 43.9 13.7 46 15 2.1 1.3 9.3 3.7 9 10-.9 17.7-39.3 16.9-38-7l-38 7s4.5 45 60 45 57-46.3 57-49c0-2.7-2.2-28.8-25-38s-37.8-7.4-44-11c-1.7-1-4.6-3.3-4-9 .6-5.7.3-10.7 15-12 14.7-1.3 19.2 14.3 20 17zm83-86h39v42h28v38h-28v56s1.4 11.5 11 11c13 0 13-1 13-1h3v36s-14.8 4-19 4h-6s-17-.7-29-10-15-22.8-15-31v-65h-26V69h11s18-2.4 18-20V27zm141-1s-.1 25-25 25-26-25-26-25 1-26 26-26 25 26 25 26zm-47 43h43v141h-43V69zm115 70s-1.6-34 31-34 32 35 32 35-1.5 35-32 35-31-36-31-36zm32-75s74 2.2 74 75-66.4 75-74 75h-11s-65-6-65-75 68.7-76.9 76-75z"/><path fill="#9FD533" fill-rule="evenodd" d="M803.5 154a29.5 29.5 0 1 1 0 59 29.5 29.5 0 0 1 0-59z"/></svg>