<svg width="14" height="16" viewBox="0 0 14 16" fill="none" xmlns="http://www.w3.org/2000/svg">
<path fill-rule="evenodd" clip-rule="evenodd" d="M2.99998 3.99998C2.99998 1.79397 4.79391 2.69413e-05 7.00013 2.69413e-05C9.20598 2.69413e-05 11.0001 1.79397 11.0001 3.99998V5.00001C11.0001 7.20595 9.20598 8.99997 7.00013 8.99997C4.79391 8.99997 2.99998 7.20595 2.99998 5.00001V3.99998ZM7.00013 11C8.55485 11 9.96903 10.4 11.036 9.42602C12.797 9.99999 14.0001 11.311 14.0001 13V16H2.5034e-05V13C2.5034e-05 11.311 1.20289 9.99999 2.96404 9.42602C4.03105 10.4 5.44502 11 7.00013 11Z" fill="#CCCCCC"/>
</svg>
