<svg xmlns="http://www.w3.org/2000/svg" width="14" height="12.444" viewBox="0 0 14 12.444">
  <path id="Icon_awesome-exclamation-triangle" data-name="Icon awesome-exclamation-triangle" d="M13.842,10.695a1.167,1.167,0,0,1-1.011,1.75H1.168a1.167,1.167,0,0,1-1.011-1.75L5.989.583a1.167,1.167,0,0,1,2.021,0ZM7,8.6A1.118,1.118,0,1,0,8.118,9.722,1.118,1.118,0,0,0,7,8.6ZM5.938,4.585l.18,3.306a.292.292,0,0,0,.291.276H7.59a.292.292,0,0,0,.291-.276l.18-3.306a.292.292,0,0,0-.291-.308H6.23a.292.292,0,0,0-.291.308Z" transform="translate(0)" fill="#d32f2f"/>
</svg>
