<svg xmlns="http://www.w3.org/2000/svg" width="16" height="16" viewBox="0 0 16 16">
  <g id="Group_1" data-name="Group 1" transform="translate(-1475 -61)">
    <path id="Shape_sp-7742-0" data-name="Shape sp-7742-0" d="M5,6,1,10l4,4V11h6V9H5Z" transform="translate(1474 59)" fill="#2f3254"/>
    <path id="Shape_sp-7742-0-2" data-name="Shape sp-7742-0" d="M16,18H7a.945.945,0,0,1-1-1V14H8v2h7V4H8V6H6V3A.945.945,0,0,1,7,2h9a.945.945,0,0,1,1,1V17A.945.945,0,0,1,16,18Z" transform="translate(1474 59)" fill="#2f3254"/>
  </g>
</svg>
